<?xml version="1.0" encoding="UTF-8"?>
<!DOCTYPE svg PUBLIC "-//W3C//DTD SVG 1.1//EN" "http://www.w3.org/Graphics/SVG/1.1/DTD/svg11.dtd">
<!-- Creator: CorelDRAW -->
<svg xmlns="http://www.w3.org/2000/svg" xml:space="preserve" width="1.70666in" height="1.70666in" version="1.1" style="shape-rendering:geometricPrecision; text-rendering:geometricPrecision; image-rendering:optimizeQuality; fill-rule:evenodd; clip-rule:evenodd"
viewBox="0 0 1706.66 1706.66"
 xmlns:xlink="http://www.w3.org/1999/xlink"
 xmlns:xodm="http://www.corel.com/coreldraw/odm/2003">
 <defs>
  <style type="text/css">
   <![CDATA[
    .fil1 {fill:#000066}
    .fil2 {fill:#DADADA}
    .fil0 {fill:#FF6600}
   ]]>
  </style>
 </defs>
 <g id="Layer_x0020_1">
  <metadata id="CorelCorpID_0Corel-Layer"/>
  <path class="fil0" d="M1126.2 1530.99l-545.73 0c-11.04,0 -20,-8.97 -20,-20l0 -154.69c0,-11.04 8.96,-20 20,-20l545.75 0c11.04,0 20,8.97 20,20l0 154.69c0,11.03 -8.97,20 -20.01,20zm-525.74 -40.01l505.74 0 0 -114.68 -505.74 0.01 0 114.67z"/>
  <path class="fil0" d="M1407.77 1178.26l-1108.86 0c-11.04,0 -20,-8.97 -20,-20l0 -724.75c0,-11.04 8.96,-20 20,-20l199.88 0c26.33,0 26.33,40 0,40l-179.88 0 0 684.74 1068.85 0 0 -684.75 -179.86 0c-26.33,0 -26.32,-40 0,-40l199.88 0c11.04,0 20,8.96 20,20l0 724.75c0,11.04 -8.96,20.01 -20,20.01z"/>
  <path class="fil1" d="M1180.66 1029.98l-654.66 0c-26.04,0 -47.23,-21.18 -47.23,-47.22l0 -935.48c0,-26.04 21.18,-47.22 47.23,-47.22l514.54 0c5.31,0 10.39,2.11 14.15,5.86l167.34 167.35c3.75,3.75 5.86,8.83 5.86,14.14l0 795.35c-0,26.03 -21.2,47.22 -47.24,47.22zm-654.66 -989.94c-3.91,0 -7.23,3.3 -7.23,7.23l0 935.47c0,3.92 3.32,7.22 7.23,7.22l654.66 0c3.92,0 7.22,-3.29 7.22,-7.22l-0.01 -787.06 -155.61 -155.64 -506.26 0z"/>
  <path class="fil1" d="M1208.15 207.4l-167.63 0c-11.04,0 -20,-8.96 -20,-20l0 -167.34c0,-17.74 21.58,-26.72 34.15,-14.14l165.5 165.5c16.61,14.44 4.96,35.98 -12.02,35.98zm-147.61 -40l99.06 0 -99.06 -99.06 0 99.06z"/>
  <path class="fil0" d="M853.33 664.52c-107.34,0 -194.67,-87.33 -194.67,-194.67 0,-107.34 87.33,-194.67 194.67,-194.67 107.34,0 194.68,87.33 194.68,194.67 0,107.34 -87.34,194.67 -194.68,194.67zm0 -349.33c-85.29,0 -154.67,69.39 -154.67,154.67 0,85.29 69.39,154.67 154.67,154.67 85.28,0 154.67,-69.39 154.67,-154.67 0,-85.28 -69.39,-154.67 -154.67,-154.67z"/>
  <path class="fil0" d="M1049.73 781.86l-392.8 0c-26.33,0 -26.33,-40 0,-40l392.8 0c26.32,0 26.33,40 0,40z"/>
  <path class="fil0" d="M1049.73 913.94l-392.8 0c-26.32,0 -26.32,-40 0,-40l392.8 0c26.32,0 26.33,40 0,40z"/>
  <path class="fil1" d="M1467.23 1376.31l-1227.81 0c-48.12,0 -87.27,-39.15 -87.27,-87.29l-0 -908.24c0,-48.12 39.15,-87.27 87.27,-87.27l259.35 -0c26.33,0 26.33,40 0,40l-259.34 0c-26.07,0 -47.27,21.21 -47.27,47.27l0 908.24c0,26.07 21.2,47.27 47.27,47.27l1227.81 0c26.07,0 47.26,-21.2 47.26,-47.27l0 -908.24c0,-26.07 -21.2,-47.27 -47.26,-47.27l-259.34 -0.01c-26.33,0 -26.32,-40 0,-40l259.34 0c48.13,0 87.27,39.15 87.27,87.27l0 908.24c0,48.14 -39.15,87.29 -87.27,87.29z"/>
  <path class="fil1" d="M1534.51 1178.26l-1362.36 0c-26.32,0 -26.32,-40 0,-40l1362.36 0c26.32,0 26.32,40 0,40z"/>
  <path class="fil1" d="M1253.2 1706.62l-799.75 0c-11.04,0 -20,-8.97 -20,-20l0 -175.63c0,-11.04 8.96,-20 20,-20l799.75 0c11.04,0 20,8.97 20,20l0 175.63c0,11.04 -8.96,20 -20,20zm-779.77 -40l759.76 0 0 -135.63 -759.76 0 0 135.63z"/>
  <path class="fil0" d="M943.71 1277.29l-180.75 0c-26.32,0 -26.32,-40 0,-40l180.75 0c26.32,0 26.33,40 0,40z"/>
  <path class="fil0" d="M801.14 529.61c-18.4,0 -31.94,-34.92 -48.61,-63.35 -13.31,-22.72 21.19,-42.92 34.5,-20.22l21.22 36.22 118.51 -69.43c22.7,-13.28 42.94,21.2 20.2,34.53 -19.28,11.3 -133.92,82.26 -145.82,82.26z"/>
  <path class="fil2" d="M192.15 380.78l0 757.49 65.99 0 -0 -757.48c0,-17.41 5.13,-33.65 13.94,-47.28l-32.66 0c-26.07,0 -47.27,21.21 -47.27,47.27z"/>
  <path class="fil2" d="M192.15 1178.26l0 110.76c0,26.07 21.2,47.27 47.27,47.27l32.65 0c-8.81,-13.63 -13.93,-29.86 -13.93,-47.27l0 -110.76 -65.99 0z"/>
  <path class="fil2" d="M518.77 47.28l0 935.47c0,3.92 3.32,7.22 7.23,7.22l51.26 0c-0.36,-2.35 -0.55,-4.76 -0.55,-7.21l0 -935.48c0,-2.46 0.19,-4.88 0.56,-7.24l-51.27 0c-3.91,0 -7.23,3.3 -7.23,7.23z"/>
 </g>
</svg>
