<?xml version="1.0" encoding="UTF-8"?>
<!DOCTYPE svg PUBLIC "-//W3C//DTD SVG 1.1//EN" "http://www.w3.org/Graphics/SVG/1.1/DTD/svg11.dtd">
<svg version="1.1" xmlns="http://www.w3.org/2000/svg" xmlns:xlink="http://www.w3.org/1999/xlink" x="0" y="0" width="535" height="471" viewBox="0, 0, 535, 471">
  <defs>
    <linearGradient id="Gradient_1" gradientUnits="userSpaceOnUse" x1="463.895" y1="309.981" x2="527.562" y2="309.981">
      <stop offset="0" stop-color="#FFFFFE"/>
      <stop offset="1" stop-color="#BAE1ED"/>
    </linearGradient>
    <linearGradient id="Gradient_2" gradientUnits="userSpaceOnUse" x1="121.727" y1="225.59" x2="183.052" y2="225.59">
      <stop offset="0" stop-color="#FFFFFE"/>
      <stop offset="1" stop-color="#BAE1ED"/>
    </linearGradient>
    <linearGradient id="Gradient_3" gradientUnits="userSpaceOnUse" x1="167.883" y1="283.596" x2="504.725" y2="283.596">
      <stop offset="0" stop-color="#FFFFFE"/>
      <stop offset="1" stop-color="#BAE1ED"/>
    </linearGradient>
    <linearGradient id="Gradient_4" gradientUnits="userSpaceOnUse" x1="87.014" y1="191.485" x2="144.595" y2="191.485">
      <stop offset="0" stop-color="#FFFFFE"/>
      <stop offset="1" stop-color="#BAE1ED"/>
    </linearGradient>
  </defs>
  <g id="Layer_1">
    <path d="M527.517,303.539 C526.579,292.289 504.089,247.787 494.646,253.842 C486.735,258.959 485.544,273.061 491.149,280.864 C496.267,287.983 502.829,294.633 499.978,304.711 C497.878,312.065 485.583,316.01 478.112,321.43 C471.911,321.127 466.286,327.602 464.763,332.807 C461.247,344.78 468.933,357.074 478.366,364.008 C485.056,368.93 492.839,366.567 498.103,360.903 C502.634,356.02 500.769,346.362 496.208,337.817 C513.337,328.217 528.503,315.18 527.517,303.539 z" fill="url(#Gradient_1)"/>
    <path d="M527.517,303.539 L532.898,303.091 C532.813,302.086 532.639,301.097 532.406,300.053 C531.965,298.101 531.302,295.957 530.458,293.605 C528.981,289.499 526.945,284.786 524.567,279.953 C520.993,272.703 516.684,265.23 512.252,259.31 C510.022,256.345 507.781,253.764 505.378,251.724 C504.17,250.705 502.915,249.813 501.496,249.109 C500.083,248.416 498.457,247.885 496.583,247.878 C494.956,247.863 493.17,248.355 491.728,249.298 L491.712,249.308 C490.024,250.4 488.58,251.753 487.382,253.252 C485.583,255.504 484.324,258.073 483.497,260.751 C482.673,263.433 482.278,266.236 482.277,269.039 C482.278,271.671 482.627,274.306 483.354,276.843 C484.082,279.377 485.19,281.821 486.764,284.014 C489.043,287.169 491.322,289.957 492.875,292.566 C493.656,293.867 494.259,295.108 494.659,296.306 C495.058,297.509 495.267,298.663 495.269,299.912 C495.268,300.919 495.131,302 494.781,303.241 L494.785,303.229 C494.696,303.537 494.542,303.884 494.257,304.31 C493.769,305.049 492.845,305.998 491.536,306.989 C489.579,308.488 486.826,310.053 483.885,311.67 C480.938,313.302 477.808,314.987 474.941,317.059 L478.112,321.43 L478.384,316.037 C478.157,316.025 477.926,316.019 477.692,316.019 C475.236,316.019 472.956,316.662 470.975,317.626 C467.996,319.086 465.609,321.229 463.705,323.588 C461.811,325.964 460.391,328.557 459.58,331.29 L459.581,331.285 C458.838,333.815 458.494,336.372 458.494,338.876 C458.494,341.957 459.01,344.953 459.901,347.789 C461.241,352.047 463.41,355.953 466.05,359.413 C468.695,362.873 471.816,365.893 475.168,368.359 L475.166,368.358 C476.853,369.6 478.665,370.543 480.533,371.164 C482.4,371.786 484.318,372.082 486.196,372.081 C489.311,372.081 492.29,371.278 494.957,369.952 C497.629,368.624 500.012,366.777 502.058,364.579 L502.061,364.576 C503.559,362.965 504.596,361.055 505.224,359.099 C505.856,357.137 506.105,355.122 506.107,353.113 C506.103,350.104 505.552,347.081 504.653,344.084 C503.751,341.089 502.49,338.12 500.972,335.274 L496.208,337.817 L498.848,342.527 C507.455,337.696 515.631,332.042 521.912,325.826 C525.05,322.71 527.727,319.445 529.703,315.944 C530.688,314.192 531.497,312.377 532.067,310.487 C532.635,308.598 532.962,306.63 532.962,304.624 C532.962,304.111 532.941,303.597 532.897,303.084 L532.898,303.091 L527.517,303.539 L522.136,303.995 C522.153,304.2 522.162,304.41 522.162,304.624 C522.162,305.458 522.028,306.366 521.725,307.373 C521.2,309.132 520.13,311.186 518.515,313.362 C516.102,316.632 512.494,320.142 508.169,323.518 C503.845,326.901 498.813,330.167 493.568,333.106 C491.009,334.54 490.063,337.772 491.444,340.359 C492.659,342.634 493.647,344.987 494.311,347.196 C494.979,349.403 495.31,351.468 495.306,353.113 C495.308,354.214 495.163,355.116 494.946,355.782 C494.726,356.454 494.462,356.883 494.144,357.229 L494.147,357.226 C492.911,358.558 491.524,359.601 490.154,360.279 C488.779,360.96 487.445,361.281 486.196,361.281 C485.437,361.28 484.7,361.167 483.941,360.916 C483.183,360.662 482.398,360.269 481.566,359.658 L481.564,359.657 C478.191,357.183 475.024,353.839 472.8,350.183 C471.686,348.356 470.802,346.456 470.205,344.553 C469.608,342.649 469.294,340.748 469.294,338.876 C469.295,337.352 469.5,335.844 469.944,334.328 L469.945,334.324 C470.152,333.606 470.569,332.662 471.151,331.729 C472.017,330.32 473.261,328.943 474.495,328.065 C475.111,327.621 475.716,327.298 476.256,327.1 C476.8,326.9 477.268,326.82 477.692,326.819 L477.84,326.823 C479.064,326.885 480.292,326.52 481.283,325.801 C482.834,324.673 484.837,323.494 487.015,322.281 C490.289,320.448 493.938,318.563 497.257,316.189 C498.916,314.994 500.507,313.666 501.907,312.05 C503.299,310.44 504.513,308.495 505.17,306.194 L505.174,306.181 C505.78,304.041 506.07,301.935 506.069,299.912 C506.071,297.4 505.622,295.033 504.902,292.884 C503.819,289.654 502.172,286.91 500.481,284.449 C498.783,281.988 497.022,279.786 495.534,277.711 C494.792,276.681 494.163,275.361 493.735,273.863 C493.304,272.368 493.076,270.704 493.077,269.039 C493.072,266.674 493.544,264.318 494.37,262.439 C494.78,261.498 495.274,260.675 495.816,259.998 C496.36,259.319 496.947,258.785 497.579,258.376 L497.563,258.386 L496.583,256.86 L496.583,258.678 C496.826,258.694 497.314,258.563 497.563,258.386 L496.583,256.86 L496.583,258.678 L496.583,257.828 L496.397,258.663 C496.402,258.665 496.468,258.678 496.583,258.678 L496.583,257.828 L496.397,258.663 L496.428,258.673 C496.521,258.7 496.816,258.821 497.225,259.085 C498,259.573 499.148,260.548 500.396,261.897 C502.6,264.256 505.143,267.721 507.615,271.65 C511.336,277.547 514.948,284.51 517.633,290.638 C518.976,293.7 520.09,296.559 520.871,298.928 C521.262,300.111 521.569,301.172 521.781,302.048 C521.994,302.92 522.107,303.619 522.135,303.988 L522.136,303.995 L527.517,303.539" fill="#5F7B85"/>
    <path d="M182.575,236.791 C180.788,230.864 174.538,227.485 168.61,229.291 C156.755,232.817 146.95,213.793 142.487,205.932 C139.313,200.356 138.142,197.319 131.179,199.994 C127.009,201.586 123.142,205.326 122.028,209.721 C120.446,215.991 125.427,221.86 128.952,227.045 C136.521,238.237 147.058,249.633 161.071,251.811 C165.446,252.494 170.114,252.241 175.065,250.756 C181.003,248.979 184.353,242.729 182.575,236.791 z" fill="url(#Gradient_2)"/>
    <path d="M182.575,236.791 L187.745,235.232 C186.672,231.663 184.472,228.681 181.671,226.628 C178.87,224.571 175.447,223.405 171.862,223.404 C170.262,223.403 168.632,223.638 167.033,224.127 L167.072,224.115 C166.572,224.262 166.132,224.321 165.69,224.322 C165.085,224.321 164.457,224.208 163.728,223.937 C162.461,223.472 160.907,222.457 159.317,220.958 C156.921,218.724 154.501,215.484 152.422,212.225 C151.379,210.595 150.412,208.961 149.537,207.435 C148.661,205.907 147.879,204.491 147.183,203.266 L147.18,203.261 C146.611,202.262 146.08,201.29 145.501,200.32 C145.066,199.594 144.605,198.865 144.051,198.13 C143.635,197.579 143.164,197.023 142.603,196.483 C141.768,195.676 140.696,194.903 139.436,194.38 C138.18,193.851 136.788,193.604 135.461,193.608 C134.398,193.609 133.366,193.751 132.344,193.984 C131.321,194.219 130.302,194.546 129.24,194.954 L129.253,194.949 C126.375,196.055 123.76,197.802 121.575,200.053 C119.403,202.307 117.636,205.101 116.794,208.395 L116.792,208.399 C116.473,209.664 116.326,210.935 116.326,212.164 C116.326,214.205 116.724,216.115 117.31,217.845 C118.196,220.444 119.485,222.682 120.785,224.7 C122.089,226.712 123.423,228.514 124.486,230.081 L124.479,230.07 C128.442,235.922 133.232,241.943 139.103,246.927 C142.039,249.416 145.253,251.644 148.776,253.419 C152.296,255.193 156.132,256.509 160.242,257.147 L160.238,257.146 C162.021,257.425 163.851,257.571 165.716,257.571 C169.245,257.572 172.899,257.043 176.615,255.929 L176.614,255.929 C180.197,254.86 183.188,252.653 185.238,249.844 C187.294,247.035 188.45,243.608 188.452,240.026 C188.452,238.439 188.223,236.825 187.748,235.242 L187.745,235.232 L182.575,236.791 L177.402,238.34 C177.573,238.912 177.651,239.474 177.651,240.026 C177.652,241.268 177.246,242.479 176.523,243.465 C175.796,244.451 174.794,245.198 173.517,245.583 L173.515,245.583 C170.754,246.409 168.174,246.77 165.716,246.771 C164.415,246.771 163.148,246.669 161.905,246.475 L161.901,246.475 C159.004,246.024 156.267,245.098 153.634,243.773 C149.689,241.789 145.985,238.883 142.594,235.436 C139.202,231.993 136.131,228.023 133.425,224.02 L133.418,224.009 C131.771,221.599 130.059,219.319 128.878,217.24 C128.285,216.206 127.827,215.236 127.54,214.381 C127.249,213.523 127.126,212.798 127.126,212.164 C127.127,211.779 127.169,211.42 127.264,211.042 L127.263,211.047 C127.534,209.946 128.258,208.673 129.34,207.56 C130.409,206.445 131.813,205.525 133.105,205.039 L133.118,205.034 C133.809,204.768 134.359,204.602 134.753,204.512 C135.148,204.422 135.381,204.408 135.461,204.408 L135.495,204.409 L135.588,203.547 L135.132,204.273 L135.495,204.409 L135.588,203.547 L135.132,204.273 L135.428,203.801 L135.096,204.249 L135.132,204.273 L135.428,203.801 L135.096,204.249 L135.212,204.092 L135.091,204.245 L135.096,204.249 L135.212,204.092 L135.091,204.245 L135.144,204.295 C135.276,204.42 135.629,204.865 136.082,205.615 C136.54,206.361 137.104,207.388 137.794,208.603 L137.791,208.598 C138.779,210.336 140.118,212.79 141.729,215.471 C144.162,219.501 147.182,224.068 150.963,227.896 C152.862,229.808 154.966,231.549 157.399,232.883 C159.819,234.21 162.637,235.124 165.69,235.122 C167.164,235.123 168.672,234.907 170.149,234.468 L170.188,234.456 C170.755,234.283 171.311,234.204 171.862,234.204 C173.088,234.203 174.291,234.607 175.278,235.333 C176.266,236.063 177.018,237.074 177.405,238.35 L177.402,238.34 L182.575,236.791" fill="#5F7B85"/>
    <path d="M490.173,159.145 C467.243,121.616 419.626,88.461 374.929,113.217 C365.817,118.256 358.552,124.457 347.634,125.082 C331.54,126.01 328.298,125.854 312.556,118.354 C287.438,106.352 263.063,97.514 236.149,109.75 C214.128,119.77 194.948,138.637 182.429,159.145 C127.526,249.018 243.552,407.621 274.079,444.145 C284.782,456.948 297.048,471.137 310.427,457.309 C322.985,444.321 318.718,421.449 336.247,421.449 C337.858,421.449 339.489,421.449 340.163,421.449 C356.149,421.449 349.411,444.535 362.165,457.309 C376.765,471.889 387.829,456.948 398.522,444.145 C429.05,407.631 545.095,248.989 490.173,159.145 z" fill="url(#Gradient_3)"/>
    <path d="M490.173,159.145 L494.781,156.329 C485.69,141.464 472.986,127.344 457.984,116.794 C450.482,111.524 442.398,107.152 433.889,104.084 C425.382,101.018 416.442,99.259 407.297,99.259 C395.719,99.251 383.83,102.105 372.312,108.493 L372.315,108.491 C367.473,111.179 363.39,113.974 359.457,116.019 C357.49,117.047 355.568,117.899 353.591,118.526 C351.612,119.152 349.579,119.561 347.325,119.691 L347.323,119.691 C343.335,119.922 340.206,120.078 337.612,120.077 C335.654,120.076 334.005,119.991 332.46,119.797 C330.145,119.504 328.016,118.985 325.279,118.002 C322.551,117.021 319.247,115.561 314.878,113.479 L314.884,113.481 C306.487,109.47 298.056,105.745 289.423,102.994 C280.794,100.246 271.94,98.474 262.789,98.473 C253.4,98.466 243.723,100.366 233.914,104.835 L233.913,104.835 C222.277,110.132 211.52,117.693 202.035,126.573 C192.551,135.455 184.336,145.66 177.82,156.331 L177.82,156.33 C172.39,165.218 168.546,174.737 166.071,184.658 C163.595,194.58 162.483,204.902 162.483,215.449 C162.49,238.416 167.733,262.459 175.879,286.123 C188.111,321.614 206.915,356.287 225.001,384.961 C234.045,399.296 242.912,412.124 250.7,422.784 C258.488,433.445 265.19,441.929 269.936,447.608 C273.755,452.165 277.87,457.072 282.508,461.065 C284.834,463.059 287.304,464.837 290.035,466.172 C292.757,467.502 295.791,468.388 299.029,468.387 C301.684,468.394 304.422,467.772 306.998,466.522 C309.583,465.276 312.007,463.441 314.307,461.064 L314.309,461.063 C318.112,457.125 320.502,452.6 322.285,448.288 C323.622,445.046 324.632,441.892 325.595,439.069 C326.313,436.952 327.006,435.024 327.731,433.403 C328.273,432.187 328.832,431.147 329.398,430.315 C329.823,429.689 330.249,429.179 330.679,428.766 C331.329,428.146 331.966,427.728 332.804,427.4 C333.641,427.08 334.72,426.852 336.247,426.849 C337.858,426.849 339.489,426.849 340.163,426.849 C341.52,426.854 342.301,427.081 342.843,427.337 C343.318,427.57 343.672,427.842 344.091,428.325 C344.45,428.746 344.836,429.341 345.218,430.136 C345.892,431.522 346.519,433.504 347.122,435.84 C348.041,439.349 348.917,443.629 350.485,448.065 C351.273,450.283 352.243,452.547 353.515,454.763 C354.787,456.978 356.367,459.146 358.344,461.124 L358.349,461.13 C360.819,463.595 363.348,465.483 366.007,466.774 C368.657,468.066 371.453,468.724 374.166,468.718 C377.448,468.72 380.507,467.786 383.199,466.395 C385.226,465.35 387.081,464.048 388.829,462.605 C391.448,460.438 393.836,457.943 396.12,455.364 C398.399,452.785 400.569,450.117 402.667,447.606 L402.665,447.608 C408.991,440.041 418.804,427.474 430.016,411.429 C446.829,387.363 466.767,355.514 482.574,321.148 C490.476,303.962 497.346,286.145 502.258,268.324 C507.167,250.502 510.123,232.672 510.126,215.448 C510.125,204.899 509.013,194.576 506.536,184.654 C504.06,174.734 500.214,165.215 494.78,156.328 L490.173,159.145 L485.565,161.961 C490.391,169.856 493.821,178.319 496.057,187.27 C498.292,196.22 499.326,205.658 499.325,215.448 C499.332,236.755 494.404,259.725 486.517,282.603 C474.698,316.925 456.263,351.005 438.468,379.2 C429.572,393.3 420.838,405.936 413.182,416.415 C405.527,426.893 398.943,435.223 394.38,440.681 L394.378,440.683 C390.558,445.269 386.821,449.903 383.263,453.137 C381.492,454.756 379.784,456.009 378.254,456.794 C376.711,457.584 375.408,457.915 374.166,457.918 C373.129,457.911 372.063,457.7 370.719,457.056 C369.385,456.41 367.789,455.294 365.981,453.488 L365.986,453.493 C364.765,452.269 363.76,450.909 362.893,449.406 C361.377,446.78 360.308,443.694 359.417,440.416 C358.746,437.959 358.174,435.408 357.509,432.873 C357.009,430.971 356.457,429.076 355.719,427.213 C355.164,425.818 354.502,424.437 353.64,423.108 C352.994,422.113 352.232,421.149 351.327,420.267 C349.974,418.943 348.278,417.826 346.365,417.108 C344.451,416.383 342.358,416.048 340.163,416.049 C339.489,416.049 337.858,416.049 336.247,416.049 C333.474,416.046 330.882,416.51 328.569,417.462 C326.546,418.289 324.77,419.484 323.306,420.873 C322.02,422.089 320.964,423.443 320.07,424.845 C318.509,427.304 317.416,429.912 316.446,432.533 C315.003,436.466 313.831,440.47 312.325,444.112 C310.824,447.762 309.033,450.986 306.545,453.555 L306.546,453.553 C304.949,455.204 303.523,456.209 302.308,456.794 C301.084,457.377 300.072,457.581 299.029,457.587 C297.77,457.586 296.385,457.251 294.77,456.466 C292.359,455.303 289.565,453.091 286.747,450.269 C283.919,447.453 281.052,444.069 278.222,440.681 C272.135,433.399 262.466,421.023 251.439,405.24 C234.893,381.563 215.264,350.175 199.845,316.637 C192.134,299.87 185.476,282.569 180.762,265.458 C176.046,248.347 173.281,231.432 173.283,215.449 C173.283,205.66 174.317,196.222 176.55,187.272 C178.785,178.321 182.214,169.857 187.037,161.96 L187.038,161.959 C193.041,152.121 200.676,142.639 209.417,134.456 C218.157,126.27 228,119.388 238.386,114.665 L238.385,114.666 C246.835,110.831 254.832,109.28 262.789,109.273 C270.535,109.273 278.265,110.775 286.146,113.285 C294.023,115.791 302.027,119.306 310.227,123.226 L310.233,123.229 C313.233,124.658 315.823,125.843 318.196,126.829 C321.75,128.307 324.854,129.348 327.989,129.996 C331.122,130.647 334.209,130.879 337.612,130.877 C340.628,130.876 343.919,130.705 347.945,130.473 L347.942,130.473 C351.147,130.291 354.117,129.69 356.856,128.821 C360.97,127.514 364.553,125.631 367.89,123.684 C371.229,121.731 374.342,119.71 377.542,117.942 L377.545,117.941 C387.524,112.422 397.47,110.067 407.297,110.059 C415.053,110.06 422.746,111.549 430.227,114.244 C441.443,118.283 452.165,125.058 461.635,133.426 C471.107,141.788 479.319,151.733 485.565,161.96 L490.173,159.145" fill="#5F7B85"/>
    <path d="M288.474,203.412 C288.474,211.362 282.009,217.817 274.06,217.817 C266.091,217.817 259.626,211.362 259.626,203.412 C259.626,195.444 266.091,188.979 274.06,188.979 C282.009,188.979 288.474,195.444 288.474,203.412" fill="#1A1919"/>
    <path d="M381.696,203.412 C381.696,211.362 388.142,217.817 396.091,217.817 C404.06,217.817 410.505,211.362 410.505,203.412 C410.505,195.444 404.06,188.979 396.091,188.979 C388.142,188.979 381.696,195.444 381.696,203.412" fill="#1A1919"/>
    <path d="M292.987,228.362 C292.965,228.562 292.883,229.407 292.883,230.74 C292.885,232.732 293.063,235.818 293.963,239.456 C294.64,242.182 295.73,245.224 297.493,248.287 C298.814,250.582 300.518,252.885 302.677,255.028 C305.911,258.247 310.174,261.076 315.5,263.065 C320.829,265.06 327.199,266.239 334.787,266.367 C338.431,266.429 341.435,263.525 341.497,259.882 C341.559,256.238 338.655,253.234 335.011,253.172 C327.476,253.043 322.077,251.696 318.193,249.898 C315.275,248.544 313.177,246.941 311.562,245.238 C310.353,243.96 309.417,242.614 308.676,241.246 C307.567,239.197 306.907,237.086 306.535,235.215 C306.162,233.346 306.08,231.728 306.081,230.74 C306.081,230.348 306.093,230.056 306.103,229.887 L306.113,229.728 L306.114,229.719 L303.18,229.456 L306.109,229.771 L306.114,229.719 L303.18,229.456 L306.109,229.771 C306.498,226.147 303.876,222.895 300.252,222.505 C296.629,222.116 293.376,224.739 292.987,228.362" fill="#1A1919"/>
    <path d="M363.861,229.728 L368.095,229.301 L363.857,229.681 L363.861,229.728 L368.095,229.301 L363.857,229.681 L364.035,229.665 L363.857,229.68 L363.857,229.681 L364.035,229.665 L363.857,229.68 C363.859,229.717 363.884,230.041 363.884,230.579 C363.886,231.698 363.774,233.739 363.201,236.059 C362.773,237.801 362.091,239.694 361.041,241.533 C360.253,242.913 359.26,244.267 357.98,245.55 C356.056,247.469 353.489,249.26 349.778,250.668 C346.071,252.069 341.194,253.063 334.787,253.172 C331.143,253.234 328.24,256.238 328.302,259.882 C328.363,263.526 331.368,266.429 335.011,266.368 C344.076,266.215 351.421,264.556 357.308,261.808 C361.719,259.752 365.278,257.081 368.024,254.146 C370.087,251.947 371.694,249.611 372.929,247.305 C374.784,243.841 375.81,240.454 376.384,237.55 C376.957,234.644 377.08,232.21 377.081,230.579 C377.081,229.364 377.011,228.594 376.992,228.405 C376.627,224.779 373.391,222.136 369.765,222.501 C366.139,222.866 363.496,226.102 363.861,229.728" fill="#1A1919"/>
    <path d="M334.538,141.224 C336.217,141.363 337.931,141.562 339.682,141.759 L339.685,141.759 C344.932,142.344 349.733,143.049 354.933,143.66 C360.131,144.271 365.713,144.779 372.425,144.949 L372.427,144.949 C372.763,144.957 373.097,144.961 373.43,144.961 C376.482,144.959 379.735,144.638 383.038,144.149 C387.987,143.413 393.042,142.289 397.466,141.189 C401.884,140.09 405.685,139.009 407.993,138.378 C410.337,137.738 411.717,135.318 411.076,132.975 C410.436,130.631 408.016,129.251 405.673,129.892 C402.505,130.758 396.987,132.336 390.93,133.697 C387.907,134.376 384.757,134.999 381.745,135.446 C378.735,135.895 375.855,136.164 373.43,136.162 C373.159,136.162 372.897,136.159 372.646,136.153 L372.648,136.153 C366.253,135.991 360.996,135.513 355.959,134.922 C350.925,134.332 346.097,133.622 340.66,133.015 L340.664,133.015 C338.938,132.822 337.136,132.61 335.261,132.456 C332.839,132.256 330.714,134.057 330.515,136.479 C330.315,138.9 332.117,141.025 334.538,141.225" fill="#808180"/>
    <path d="M334.54,132.456 C332.654,132.61 330.852,132.821 329.118,133.015 C323.682,133.622 318.859,134.332 313.827,134.922 C308.793,135.513 303.536,135.991 297.132,136.153 L297.133,136.153 C296.882,136.159 296.621,136.162 296.35,136.162 C293.927,136.164 291.049,135.895 288.041,135.446 C283.522,134.776 278.703,133.71 274.449,132.651 C270.188,131.59 266.505,130.543 264.128,129.892 C261.784,129.25 259.364,130.63 258.723,132.973 C258.081,135.316 259.461,137.736 261.804,138.378 C264.885,139.221 270.59,140.856 276.93,142.282 C280.105,142.995 283.448,143.658 286.747,144.149 C290.048,144.638 293.299,144.959 296.35,144.961 C296.682,144.961 297.017,144.957 297.353,144.949 L297.354,144.949 C304.075,144.779 309.658,144.271 314.853,143.66 C320.052,143.049 324.847,142.344 330.094,141.759 C331.857,141.562 333.571,141.363 335.259,141.224 C337.68,141.026 339.482,138.902 339.284,136.481 C339.085,134.059 336.961,132.257 334.54,132.456" fill="#808180"/>
    <path d="M269.675,244.408 C269.675,252.895 256.374,259.77 239.978,259.77 C223.571,259.77 210.271,252.895 210.271,244.408 C210.271,235.932 223.571,229.067 239.978,229.067 C256.374,229.067 269.675,235.932 269.675,244.408" fill="#F1BDCE"/>
    <path d="M400.349,244.408 C400.349,252.895 413.649,259.77 430.056,259.77 C446.442,259.77 459.743,252.895 459.743,244.408 C459.743,235.932 446.442,229.067 430.056,229.067 C413.649,229.067 400.349,235.932 400.349,244.408" fill="#F1BDCE"/>
    <path d="M294.354,130.286 C292.538,131.715 289.882,131.399 288.453,129.582 L254.51,86.442 C253.081,84.625 253.397,81.969 255.214,80.54 L338.94,14.673 C340.757,13.244 343.413,13.561 344.843,15.377 L378.784,58.498 C380.214,60.315 379.897,62.971 378.081,64.4 L294.354,130.286" fill="#FFFFFE"/>
    <path d="M294.354,130.286 L292.063,127.373 C291.972,127.443 291.884,127.472 291.763,127.474 L291.533,127.424 L291.366,127.29 L257.423,84.15 C257.352,84.058 257.324,83.97 257.321,83.85 L257.372,83.621 L257.504,83.455 L257.506,83.453 L341.232,17.586 C341.324,17.515 341.412,17.487 341.532,17.484 L341.762,17.535 L341.93,17.669 L375.872,60.791 C375.942,60.883 375.971,60.97 375.973,61.09 L375.923,61.319 L375.788,61.487 L292.062,127.374 L296.647,133.199 L380.373,67.312 C381.359,66.537 382.121,65.555 382.625,64.486 C383.131,63.416 383.386,62.257 383.386,61.09 C383.389,59.391 382.832,57.647 381.697,56.206 L347.755,13.085 C346.981,12.099 345.998,11.336 344.928,10.832 C343.858,10.327 342.699,10.072 341.532,10.071 C339.832,10.069 338.089,10.625 336.649,11.76 L252.923,77.627 L252.924,77.626 C251.937,78.4 251.174,79.383 250.67,80.453 C250.164,81.524 249.909,82.682 249.908,83.85 C249.906,85.549 250.462,87.293 251.597,88.733 L285.54,131.874 C286.316,132.86 287.298,133.622 288.367,134.126 C289.437,134.632 290.595,134.887 291.763,134.887 C293.461,134.89 295.205,134.335 296.646,133.2 L294.354,130.286" fill="#8A8B8A"/>
    <path d="M372.148,69.069 L337.011,24.421 C335.745,22.812 333.415,22.534 331.806,23.8 C330.198,25.066 329.92,27.396 331.186,29.005 L366.323,73.654 C367.589,75.262 369.919,75.54 371.528,74.274 C373.136,73.008 373.414,70.678 372.148,69.069" fill="#8A8B8A"/>
    <path d="M356.065,81.717 L320.947,37.068 C319.682,35.459 317.352,35.181 315.743,36.446 C314.134,37.712 313.855,40.042 315.121,41.651 L350.238,86.299 C351.504,87.908 353.834,88.187 355.443,86.921 C357.052,85.656 357.33,83.325 356.065,81.717" fill="#8A8B8A"/>
    <path d="M339.98,94.382 L304.853,49.734 C303.588,48.125 301.257,47.847 299.649,49.113 C298.04,50.378 297.762,52.709 299.027,54.317 L334.154,98.966 C335.42,100.574 337.75,100.853 339.359,99.587 C340.968,98.321 341.246,95.991 339.98,94.382" fill="#8A8B8A"/>
    <path d="M323.896,107.048 L288.759,62.399 C287.493,60.791 285.163,60.513 283.554,61.779 C281.946,63.045 281.668,65.375 282.934,66.984 L318.071,111.632 C319.337,113.241 321.667,113.519 323.276,112.253 C324.884,110.987 325.162,108.657 323.896,107.048" fill="#8A8B8A"/>
    <path d="M307.793,119.705 L272.676,75.056 C271.41,73.448 269.08,73.169 267.471,74.435 C265.862,75.7 265.584,78.03 266.849,79.639 L301.967,124.288 C303.232,125.897 305.562,126.175 307.171,124.909 C308.78,123.644 309.059,121.314 307.793,119.705" fill="#8A8B8A"/>
    <path d="M352.058,6.264 C356.442,11.83 353.591,21.401 345.681,27.641 L27.058,278.315 C19.148,284.545 9.177,285.063 4.782,279.487 C0.388,273.901 3.239,264.33 11.159,258.1 L329.763,7.416 C337.683,1.205 347.673,0.668 352.058,6.264" fill="#007CB7"/>
    <path d="M128.2,212.817 C113.864,221.166 96.677,218.373 89.831,206.576 C82.985,194.809 89.04,178.481 103.396,170.151 C117.751,161.801 134.929,164.604 141.774,176.391 C148.63,188.158 142.556,204.477 128.2,212.817 z" fill="url(#Gradient_4)"/>
    <path d="M128.2,212.817 L125.483,208.15 C120.713,210.93 115.618,212.23 110.943,212.228 C107.274,212.229 103.881,211.429 101.078,209.995 C98.27,208.553 96.048,206.52 94.502,203.866 L94.499,203.861 C93.092,201.436 92.419,198.777 92.414,195.925 C92.41,192.255 93.581,188.267 95.906,184.543 C98.227,180.82 101.682,177.387 106.106,174.821 L106.111,174.818 C110.887,172.038 115.983,170.739 120.658,170.741 C124.33,170.74 127.723,171.54 130.526,172.974 C133.335,174.416 135.558,176.449 137.105,179.103 L137.108,179.109 C138.516,181.532 139.189,184.187 139.194,187.035 C139.198,190.702 138.026,194.689 135.697,198.415 C133.374,202.139 129.914,205.577 125.487,208.147 L125.483,208.15 L128.2,212.817 L130.913,217.486 C136.835,214.043 141.572,209.396 144.858,204.135 C148.14,198.876 149.99,192.978 149.994,187.035 C149.999,182.441 148.86,177.818 146.44,173.672 L146.444,173.679 C143.808,169.131 139.921,165.639 135.441,163.356 C130.955,161.067 125.881,159.942 120.658,159.941 C114.003,159.943 107.074,161.766 100.68,165.483 L100.685,165.48 C94.762,168.918 90.026,173.566 86.743,178.826 C83.464,184.086 81.618,189.983 81.614,195.925 C81.609,200.52 82.747,205.145 85.163,209.292 L85.161,209.287 C87.796,213.837 91.684,217.33 96.163,219.612 C100.649,221.902 105.721,223.027 110.943,223.028 C117.599,223.026 124.528,221.202 130.918,217.483 L130.913,217.486 L128.2,212.817" fill="#5F7B85"/>
    <path d="M410.212,74.076 C419.704,80.727 420.681,100.6 409.646,100.268 C423.024,106.664 408.884,142.231 390.114,128.198 C392.263,146.303 359.47,160.043 351.56,144.321 C347.302,159.565 323.698,164.662 315.241,148.969 C311.442,154.672 303.552,158.305 296.384,156.967 C293.103,156.391 290.153,154.946 288.054,152.455 C287.399,151.694 283.845,143.071 285.183,143.09 C276.931,143.002 274.421,141.449 273.825,134.301 C272.79,121.606 285.759,113.959 298.747,117.143 C295.7,107.387 291.56,100.19 302.546,93.178 C310.192,88.285 319.733,87.944 328.942,90.336 C330.388,81.645 335.056,72.436 344.86,68.598 C352.146,65.737 356.521,66.137 361.687,71.498 C362.946,57.485 388.435,62.446 389.147,75.024 C393.933,72.065 401.247,67.807 410.212,74.076" fill="#FFFFFE"/>
    <path d="M410.212,74.076 L407.885,77.397 C409.521,78.533 410.995,80.449 412.011,82.75 C413.032,85.038 413.578,87.672 413.572,89.962 C413.573,91.064 413.449,92.084 413.233,92.936 C413.071,93.575 412.859,94.12 412.626,94.55 C412.272,95.2 411.905,95.573 411.532,95.811 C411.152,96.043 410.724,96.207 409.917,96.216 L409.743,96.214 C407.834,96.168 406.147,97.466 405.702,99.324 C405.257,101.181 406.173,103.102 407.896,103.926 C408.382,104.16 408.762,104.44 409.105,104.792 C409.612,105.316 410.045,106.031 410.362,106.997 C410.679,107.958 410.862,109.157 410.86,110.494 C410.863,112.324 410.52,114.401 409.859,116.431 C408.878,119.482 407.167,122.408 405.162,124.386 C404.161,125.381 403.1,126.141 402.04,126.639 C400.974,127.138 399.921,127.389 398.795,127.392 C397.927,127.39 397.004,127.241 395.968,126.866 C394.935,126.49 393.79,125.882 392.542,124.949 C391.239,123.975 389.496,123.872 388.087,124.685 C386.678,125.499 385.896,127.059 386.087,128.675 C386.136,129.088 386.16,129.496 386.16,129.899 C386.158,132.004 385.524,134.068 384.302,136.101 C382.483,139.141 379.284,141.996 375.567,143.996 C371.862,146.011 367.67,147.152 364.147,147.141 C361.962,147.142 360.065,146.719 358.598,145.961 C357.86,145.581 357.221,145.121 356.657,144.559 C356.094,143.997 355.602,143.33 355.182,142.498 C354.428,140.999 352.837,140.122 351.167,140.284 C349.498,140.447 348.105,141.614 347.654,143.23 C347.181,144.919 346.405,146.443 345.377,147.808 C343.838,149.853 341.714,151.533 339.284,152.691 C336.858,153.851 334.14,154.476 331.505,154.474 C328.923,154.473 326.439,153.885 324.282,152.691 C322.124,151.49 320.253,149.706 318.811,147.045 C318.136,145.793 316.851,144.985 315.43,144.918 C314.009,144.852 312.655,145.537 311.866,146.721 C310.667,148.531 308.784,150.193 306.566,151.358 C304.351,152.529 301.827,153.193 299.431,153.189 C298.648,153.189 297.877,153.12 297.126,152.98 L297.085,152.973 C295.808,152.749 294.658,152.365 293.669,151.843 C292.679,151.319 291.85,150.665 291.154,149.841 L291.13,149.813 L289.091,151.564 L291.393,150.166 C291.373,150.141 291.353,150.08 291.13,149.813 L289.091,151.564 L291.393,150.166 L291.16,150.307 L291.395,150.17 L291.393,150.166 L291.16,150.307 L291.395,150.17 C291.385,150.154 291.296,149.989 291.19,149.769 C290.806,148.977 290.165,147.456 289.676,146.077 C289.43,145.387 289.217,144.72 289.085,144.22 C289.019,143.971 288.973,143.763 288.951,143.641 L288.935,143.536 L287.886,143.65 L288.939,143.65 L288.935,143.536 L287.886,143.65 L288.939,143.65 L286.325,143.65 L288.901,144.078 C288.937,143.861 288.938,143.731 288.939,143.65 L286.325,143.65 L288.901,144.078 L285.59,143.528 L288.719,144.739 C288.827,144.456 288.873,144.241 288.901,144.078 L285.59,143.528 L288.719,144.739 L285.304,143.417 L288.33,145.478 C288.518,145.201 288.637,144.95 288.719,144.739 L285.304,143.417 L288.33,145.478 L285.18,143.333 L286.987,146.686 C287.591,146.364 288.055,145.889 288.33,145.478 L285.18,143.333 L286.987,146.686 L285.178,143.329 L285.178,147.144 C285.706,147.15 286.389,147.014 286.987,146.686 L285.178,143.329 L285.178,147.144 L285.178,143.1 L284.389,147.066 C284.691,147.127 284.968,147.145 285.178,147.144 L285.178,143.1 L284.389,147.066 L285.178,143.1 L283.483,146.772 C283.766,146.904 284.087,147.007 284.389,147.066 L285.178,143.1 L283.483,146.772 L285.183,143.09 L285.226,139.035 C283.288,139.017 281.791,138.901 280.775,138.702 C280.009,138.556 279.533,138.373 279.271,138.228 C279.07,138.116 278.977,138.036 278.881,137.934 C278.747,137.784 278.565,137.53 278.36,136.893 C278.158,136.265 277.974,135.285 277.866,133.964 L277.867,133.971 C277.837,133.601 277.822,133.24 277.822,132.888 C277.825,130.998 278.231,129.363 278.946,127.901 C280.018,125.718 281.833,123.886 284.244,122.563 C286.649,121.244 289.632,120.474 292.827,120.476 C294.441,120.476 296.107,120.67 297.78,121.081 C299.2,121.429 300.701,120.985 301.702,119.92 C302.703,118.855 303.054,117.329 302.618,115.934 C301.81,113.351 300.97,111.045 300.374,109.034 C299.77,107.022 299.432,105.325 299.438,103.99 C299.439,103.334 299.511,102.762 299.656,102.218 C299.879,101.405 300.253,100.626 301.016,99.697 C301.779,98.775 302.958,97.724 304.727,96.596 L304.732,96.594 C306.7,95.335 308.819,94.43 311.077,93.831 C313.333,93.234 315.729,92.947 318.214,92.947 C321.359,92.946 324.644,93.408 327.922,94.261 C329.029,94.549 330.191,94.36 331.15,93.737 C332.11,93.114 332.755,92.13 332.943,91.001 C333.585,87.119 334.957,83.171 337.143,79.893 C339.342,76.606 342.273,73.975 346.338,72.374 L346.343,72.372 C347.665,71.853 348.826,71.475 349.83,71.236 C350.835,70.995 351.678,70.893 352.4,70.893 C353.498,70.902 354.326,71.095 355.31,71.579 C356.286,72.068 357.425,72.918 358.766,74.312 C359.869,75.456 361.534,75.851 363.033,75.323 C364.533,74.795 365.583,73.445 365.725,71.861 C365.814,70.901 366.051,70.233 366.354,69.701 C366.585,69.302 366.862,68.971 367.213,68.666 C367.738,68.212 368.45,67.818 369.365,67.536 C370.277,67.253 371.379,67.094 372.573,67.095 C374.021,67.094 375.6,67.328 377.113,67.779 C379.387,68.447 381.494,69.618 382.895,70.971 C383.601,71.646 384.134,72.355 384.494,73.063 C384.854,73.774 385.053,74.477 385.099,75.253 C385.18,76.686 386.001,77.957 387.274,78.62 C388.548,79.283 390.059,79.228 391.28,78.472 C392.736,77.57 394.28,76.652 395.884,75.983 C397.49,75.312 399.116,74.895 400.799,74.895 C401.827,74.897 402.889,75.045 404.053,75.424 C405.215,75.804 406.486,76.419 407.887,77.399 L407.885,77.397 L410.212,74.076 L412.536,70.754 C410.549,69.362 408.548,68.359 406.569,67.714 C404.592,67.067 402.642,66.783 400.799,66.785 C397.761,66.785 395.049,67.54 392.754,68.501 C390.456,69.463 388.535,70.637 387.014,71.575 L389.147,75.024 L393.196,74.794 C393.053,72.193 392.143,69.801 390.8,67.82 C388.774,64.837 385.866,62.695 382.694,61.231 C379.511,59.777 376.021,58.991 372.573,58.985 C370.888,58.985 369.211,59.177 367.584,59.611 C365.155,60.258 362.794,61.475 360.949,63.456 C360.031,64.44 359.258,65.607 358.697,66.907 C358.134,68.207 357.782,69.633 357.648,71.135 L361.687,71.498 L364.607,68.685 C362.836,66.847 361.005,65.367 358.953,64.333 C356.91,63.296 354.65,62.774 352.4,62.783 C350.914,62.783 349.435,62.992 347.946,63.347 C346.456,63.703 344.951,64.206 343.378,64.824 L343.382,64.822 C337.643,67.059 333.338,70.951 330.39,75.401 C327.43,79.859 325.745,84.861 324.942,89.671 L328.942,90.336 L329.963,86.411 C326.102,85.408 322.148,84.837 318.214,84.837 C315.107,84.837 312.01,85.195 309.001,85.991 C305.994,86.787 303.075,88.024 300.36,89.762 L300.364,89.76 C297.302,91.714 295.013,93.847 293.485,96.302 C292.725,97.524 292.17,98.815 291.822,100.117 C291.473,101.419 291.327,102.725 291.328,103.99 C291.334,106.589 291.907,109 292.6,111.346 C293.3,113.694 294.143,115.997 294.876,118.352 L298.747,117.143 L299.714,113.204 C297.406,112.638 295.092,112.366 292.827,112.366 C286.854,112.371 281.193,114.247 276.879,117.791 C274.727,119.563 272.923,121.765 271.665,124.327 C270.406,126.886 269.709,129.799 269.712,132.888 C269.712,133.463 269.736,134.044 269.783,134.63 L269.784,134.638 C269.956,136.645 270.253,138.438 270.911,140.147 C271.403,141.421 272.137,142.652 273.141,143.665 C273.889,144.425 274.769,145.044 275.693,145.508 C277.087,146.207 278.553,146.58 280.096,146.811 C281.644,147.039 283.293,147.124 285.139,147.145 C287.049,147.165 288.719,145.844 289.139,143.981 C289.558,142.118 288.616,140.208 286.882,139.408 C286.597,139.276 286.275,139.171 285.972,139.112 C285.668,139.051 285.39,139.033 285.178,139.034 C284.812,139.033 284.4,139.082 283.983,139.202 C283.248,139.406 282.533,139.863 282.063,140.37 C281.704,140.75 281.464,141.138 281.299,141.48 C281.052,141.998 280.957,142.418 280.898,142.765 C280.842,143.113 280.83,143.396 280.829,143.65 C280.834,144.341 280.923,144.846 281.024,145.365 C281.208,146.254 281.472,147.135 281.777,148.048 C282.234,149.41 282.782,150.804 283.286,151.973 C283.539,152.558 283.778,153.081 284.007,153.541 C284.123,153.772 284.234,153.986 284.363,154.211 C284.429,154.324 284.498,154.441 284.587,154.577 C284.68,154.714 284.781,154.866 284.978,155.097 L284.953,155.069 C286.357,156.736 288.052,158.05 289.882,159.015 C291.714,159.982 293.678,160.609 295.682,160.961 L296.384,156.967 L295.642,160.954 C296.902,161.188 298.171,161.299 299.431,161.299 C303.289,161.295 307.037,160.274 310.348,158.533 C313.655,156.785 316.55,154.31 318.616,151.217 L315.241,148.969 L311.671,150.893 C313.809,154.874 316.875,157.871 320.356,159.788 C323.838,161.714 327.697,162.585 331.505,162.584 C336.7,162.577 341.842,160.993 346.153,158.078 C348.306,156.618 350.251,154.815 351.853,152.691 C353.454,150.568 354.71,148.117 355.465,145.411 L351.56,144.321 L347.937,146.143 C348.731,147.723 349.746,149.123 350.929,150.302 C352.704,152.074 354.84,153.333 357.097,154.12 C359.358,154.911 361.742,155.25 364.147,155.251 C367.603,155.248 371.115,154.553 374.491,153.34 C379.55,151.509 384.325,148.518 388,144.572 C389.833,142.595 391.388,140.369 392.501,137.905 C393.612,135.444 394.272,132.733 394.27,129.899 C394.27,129.178 394.228,128.451 394.141,127.72 L390.114,128.198 L387.686,131.445 C389.487,132.792 391.329,133.808 393.197,134.488 C395.064,135.168 396.956,135.503 398.795,135.502 C401.992,135.506 404.96,134.488 407.447,132.9 C411.191,130.505 413.981,126.925 415.927,122.992 C417.861,119.044 418.961,114.707 418.971,110.494 C418.967,107.761 418.5,105.051 417.307,102.576 C416.709,101.343 415.923,100.174 414.931,99.149 C413.941,98.125 412.744,97.253 411.395,96.609 L409.646,100.268 L409.548,104.322 C409.675,104.325 409.798,104.326 409.917,104.326 C411.837,104.331 413.701,103.878 415.291,103.005 C416.484,102.354 417.511,101.484 418.341,100.5 C419.589,99.02 420.41,97.305 420.932,95.523 C421.453,93.737 421.681,91.865 421.682,89.962 C421.677,86.454 420.911,82.825 419.424,79.46 C417.93,76.106 415.696,72.978 412.539,70.755 L412.536,70.754 L410.212,74.076" fill="#71C8E6"/>
    <path d="M325.124,133.305 C324.938,131.742 331.052,137.133 336.032,136.42 C346.052,134.985 346.813,124.135 347.966,123.862 C349.118,123.598 355.69,135.805 370.241,128.451 C378.718,124.155 377.771,114.008 378.444,113.412 C379.187,112.748 385.603,116.205 392.263,109.096 C395.271,105.893 391.638,96.742 392.673,96.332 C394.782,95.512 403.142,106.42 399.079,112.709 C395.856,117.69 389.167,119.36 384.958,119.907 C383.298,127.875 379.509,133.158 373.708,135.629 C365.524,139.086 353.737,137.524 350.524,133.022 C346.071,139.614 343.122,142.807 337.839,143.188 C330.505,143.764 325.231,134.194 325.124,133.305" fill="#BCE2EE"/>
    <path d="M463.513,107.758 C463.513,117.719 455.437,125.805 445.466,125.805 C435.485,125.805 427.419,117.719 427.419,107.758 C427.419,97.787 435.485,89.711 445.466,89.711 C455.437,89.711 463.513,97.787 463.513,107.758" fill="#FFFFFE"/>
    <path d="M463.513,107.758 L459.797,107.758 C459.795,111.724 458.2,115.284 455.601,117.89 C452.995,120.49 449.436,122.087 445.466,122.089 C441.489,122.087 437.931,120.49 435.328,117.89 C432.73,115.285 431.136,111.725 431.134,107.758 C431.136,103.784 432.731,100.226 435.327,97.622 C437.93,95.025 441.488,93.429 445.466,93.427 C449.438,93.428 452.997,95.024 455.601,97.623 C458.199,100.227 459.795,103.786 459.797,107.758 L467.228,107.758 C467.23,101.759 464.788,96.295 460.855,92.368 C456.929,88.436 451.464,85.994 445.466,85.996 C439.463,85.993 433.997,88.436 430.072,92.369 C426.14,96.296 423.701,101.761 423.703,107.758 C423.702,113.751 426.141,119.215 430.071,123.143 C433.996,127.077 439.462,129.522 445.466,129.52 C451.466,129.522 456.93,127.077 460.856,123.144 C464.788,119.216 467.23,113.753 467.228,107.758 L463.513,107.758" fill="#71C8E6"/>
    <path d="M454.646,102.729 C454.646,102.729 460.485,111.957 453.864,116.889 C453.864,116.889 449.812,120.092 445.896,118.373 C445.896,118.373 457.917,116.616 454.646,102.729" fill="#91D2E9"/>
    <path d="M453.337,54.116 C453.337,65.092 444.45,73.989 433.474,73.989 C422.497,73.989 413.61,65.092 413.61,54.116 C413.61,43.149 422.497,34.252 433.474,34.252 C444.45,34.252 453.337,43.149 453.337,54.116" fill="#FFFFFE"/>
    <path d="M453.337,54.116 L449.246,54.116 C449.243,58.488 447.487,62.408 444.627,65.276 C441.761,68.137 437.845,69.895 433.474,69.897 C429.102,69.895 425.186,68.137 422.32,65.276 C419.46,62.408 417.704,58.488 417.702,54.116 C417.704,49.748 419.46,45.831 422.319,42.964 C425.186,40.103 429.102,38.346 433.474,38.344 C437.845,38.346 441.762,40.103 444.628,42.964 C447.488,45.831 449.243,49.748 449.246,54.116 L457.428,54.116 C457.43,47.516 454.743,41.501 450.415,37.179 C446.094,32.849 440.079,30.158 433.474,30.161 C426.869,30.158 420.853,32.849 416.532,37.179 C412.204,41.501 409.517,47.516 409.519,54.116 C409.517,60.719 412.204,66.736 416.532,71.06 C420.853,75.391 426.869,78.082 433.474,78.08 C440.079,78.082 446.094,75.391 450.415,71.06 C454.743,66.736 457.43,60.719 457.428,54.116 L453.337,54.116" fill="#71C8E6"/>
    <path d="M443.581,48.588 C443.581,48.588 450.017,58.744 442.722,64.174 C442.722,64.174 438.259,67.699 433.952,65.805 C433.952,65.805 447.185,63.881 443.581,48.588" fill="#91D2E9"/>
  </g>
</svg>
