<?xml version="1.0" encoding="UTF-8" standalone="no" ?>
<!-- Created with Inkscape (http://www.inkscape.org/) -->
<svg
  xmlns:dc="http://purl.org/dc/elements/1.1/"
  xmlns:cc="http://web.resource.org/cc/"
  xmlns:rdf="http://www.w3.org/1999/02/22-rdf-syntax-ns#"
  xmlns:svg="http://www.w3.org/2000/svg"
  xmlns="http://www.w3.org/2000/svg"
  xmlns:xlink="http://www.w3.org/1999/xlink"
  xmlns:sodipodi="http://sodipodi.sourceforge.net/DTD/sodipodi-0.dtd"
  xmlns:inkscape="http://www.inkscape.org/namespaces/inkscape"
  width="614.03448"
  height="827.01892"
  id="svg2"
  inkscape:label="Pozadí"
  sodipodi:version="0.32"
  inkscape:version="0.44.1"
  sodipodi:docbase="D:\_petr_\School\INKSCAPE\svg\05.Ovoce, zelenina, jidlo\jidlo"
  sodipodi:docname="zmrzlinovy pohar.svg"
  version="1.0"
>
  <defs id="defs3">
    <linearGradient inkscape:collect="always" id="linearGradient5457">
      <stop style="stop-color:black;stop-opacity:1;" offset="0" id="stop5459" />
      <stop style="stop-color:black;stop-opacity:0;" offset="1" id="stop5461" />
    </linearGradient>
    <linearGradient inkscape:collect="always" id="linearGradient4562">
      <stop style="stop-color:black;stop-opacity:1;" offset="0" id="stop4564" />
      <stop style="stop-color:black;stop-opacity:0;" offset="1" id="stop4566" />
    </linearGradient>
    <linearGradient
      inkscape:collect="always"
      xlink:href="#linearGradient4562"
      id="linearGradient11810"
      gradientUnits="userSpaceOnUse"
      x1="283.85287"
      y1="771.28723"
      x2="372.24121"
      y2="771.28723"
      gradientTransform="translate(30.29228,201.2858)"
    />
    <linearGradient
      inkscape:collect="always"
      xlink:href="#linearGradient5457"
      id="linearGradient11812"
      gradientUnits="userSpaceOnUse"
      x1="274.25641"
      y1="819.77454"
      x2="332.84525"
      y2="819.77454"
      gradientTransform="translate(30.29228,201.2858)"
    />
  </defs>
  <sodipodi:namedview
    id="base"
    pagecolor="#ffffff"
    bordercolor="#666666"
    borderopacity="1.0"
    inkscape:pageopacity="0.0"
    inkscape:pageshadow="2"
    inkscape:zoom="0.24748737"
    inkscape:cx="388.16598"
    inkscape:cy="526.18109"
    inkscape:document-units="px"
    inkscape:current-layer="layer1"
    inkscape:window-x="-4"
    inkscape:window-y="-4"
  />
  <metadata id="metadata6">
    <rdf:RDF>
      <cc:Work rdf:about="">
        <dc:format>image/svg+xml</dc:format>
        <dc:type rdf:resource="http://purl.org/dc/dcmitype/StillImage" />
        <dc:title>zmrzlinovy pohar</dc:title>
        <dc:creator>
          <cc:Agent>
            <dc:title />
          </cc:Agent>
        </dc:creator>
        <dc:publisher>
          <cc:Agent>
            <dc:title>ZS a MS Machovo nam.</dc:title>
          </cc:Agent>
        </dc:publisher>
        <dc:language>cz</dc:language>
        <dc:subject>
          <rdf:Bag>
            <rdf:li>zmrzlinovy pohar</rdf:li>
            <rdf:li>ice cream cup</rdf:li>
          </rdf:Bag>
        </dc:subject>
        <cc:license rdf:resource="http://web.resource.org/cc/PublicDomain" />
      </cc:Work>
      <cc:License rdf:about="http://web.resource.org/cc/PublicDomain">
        <cc:permits rdf:resource="http://web.resource.org/cc/Reproduction" />
        <cc:permits rdf:resource="http://web.resource.org/cc/Distribution" />
        <cc:permits rdf:resource="http://web.resource.org/cc/DerivativeWorks" />
      </cc:License>
    </rdf:RDF>
  </metadata>
  <g
    inkscape:label="Vrstva 1"
    inkscape:groupmode="layer"
    id="layer1"
    transform="translate(-25.8667,-172.6122)"
  >
    <g
      id="g12701"
      transform="matrix(0.853904,0,0,0.857548,3.779146,142.3994)"
      inkscape:export-filename="/media/KINGSTON/inkscape/9.c/Tomas Krauskopf/vyrobky inscapeu/ovoce,jidlo,zelenina/zmrzlinovy pohar.png"
      inkscape:export-xdpi="90"
      inkscape:export-ydpi="90"
    >
      <g transform="translate(5.714286,0)" id="g11771">
        <g id="g11728" transform="translate(-206.0711,-20.20305)">
          <path
            sodipodi:nodetypes="ccccccccccccc"
            id="path7259"
            d="M 295.85214,379.35549 L 410.07117,251.33224 L 754.58395,207.87465 L 727.30983,444.25035 L 701.04587,448.29096 L 608.11183,450.31127 L 557.60421,452.33157 L 515.1778,450.31127 L 467.70063,447.28081 L 414.16254,445.2605 L 355.5737,427.07776 L 323.24881,412.93562 L 295.85214,379.35549 z "
            style="fill:#003c35;fill-opacity:1;fill-rule:evenodd;stroke:black;stroke-width:1px;stroke-linecap:butt;stroke-linejoin:miter;stroke-opacity:1"
          />
          <g transform="translate(302.8571,20)" id="g6350">
            <path
              style="fill:#96cbc5;fill-opacity:1;fill-rule:evenodd;stroke:none;stroke-width:1px;stroke-linecap:butt;stroke-linejoin:miter;stroke-opacity:1"
              d="M 266.68027,840.23015 L 238.396,842.25045 L 202.03051,846.29106 L 167.68532,854.37228 L 129.29953,868.51442 L 94.954339,900.8393 L 90.913729,921.04235 L 111.11678,949.32662 L 153.54319,971.54998 L 224.25386,993.77334 L 305.06607,999.83425 L 408.10163,989.73272 L 521.23871,951.34693 L 545.48237,910.94083 L 519.21841,878.61594 L 442.44681,852.35198 L 357.594,842.25045 L 266.68027,840.23015 z "
              id="path1899"
            />
            <path
              style="fill:#96cbc5;fill-opacity:1;fill-rule:evenodd;stroke:none;stroke-width:1px;stroke-linecap:butt;stroke-linejoin:miter;stroke-opacity:1"
              d="M 357.08892,844.27076 L 356.07877,821.54233 L 362.13969,817.50172 L 360.11938,807.90527 L 378.8072,791.74283 L 379.31228,749.31642 L 375.27167,741.2352 L 377.29198,723.55753 L 445.98235,700.8291 L 520.73364,647.29101 L 565.68543,606.88491 L 600.03061,570.01434 L 622.75904,535.66916 L 635.89103,510.41534 L 642.45702,467.48386 L 641.44687,437.17928 L 631.34534,388.18688 L 622.75904,343.74017 L 614.17275,326.0625 L 616.69813,340.20464 L 610.13214,357.37723 L 599.52554,370.00414 L 573.76665,383.13612 L 505.07627,410.41024 L 466.1854,420.00669 L 420.72854,425.56253 L 377.79705,428.08791 L 281.83256,431.11837 L 192.93914,429.09806 L 116.16754,424.0473 L 64.649763,408.89501 L 22.728432,392.73257 L -4.5456865,363.43815 L -8.5862966,341.21479 L -15.152288,365.45845 L -20.708127,390.71227 L -27.274119,426.57268 L -27.779195,510.41534 L -23.233509,536.17423 L -16.667517,559.40774 L -2.0203051,582.13617 L 28.284271,625.06766 L 63.63961,653.857 L 127.7843,690.72757 L 153.54319,699.31387 L 187.88837,708.40524 L 200.51528,713.96108 L 242.94169,720.022 L 254.05337,732.14383 L 254.05337,743.2555 L 250.01276,759.41794 L 247.99245,768.50932 L 244.96199,786.69206 L 246.47722,796.28851 L 261.62951,808.91542 L 271.73103,821.03725 L 277.28687,835.17939 L 277.28687,846.29106 L 357.08892,844.27076 z "
              id="path2788"
            />
            <path
              style="fill:#5a9293;fill-opacity:1;fill-rule:evenodd;stroke:url(#linearGradient11810);stroke-width:1px;stroke-linecap:butt;stroke-linejoin:miter;stroke-opacity:1"
              d="M 365.67522,757.90272 L 372.24121,763.96363 L 372.24121,770.52962 L 365.67522,775.58039 L 337.89603,781.6413 L 304.56099,784.67176 L 283.85287,776.59054 L 293.44931,767.49916 L 318.70313,764.46871 L 365.67522,757.90272 z "
              id="path3675"
            />
            <path
              style="fill:#5a9293;fill-opacity:1;fill-rule:evenodd;stroke:url(#linearGradient11812);stroke-width:1px;stroke-linecap:butt;stroke-linejoin:miter;stroke-opacity:1"
              d="M 332.84526,813.46111 L 322.74374,824.57278 L 300.01531,828.10832 L 282.84271,819.01694 L 274.25642,812.95603 L 285.87317,811.4408 L 300.01531,811.4408 L 332.84526,813.46111 z "
              id="path4570"
            />
          </g>
          <path
            sodipodi:nodetypes="cccccccccccc"
            id="path6356"
            d="M 903.21429,389.68361 L 912.85714,377.00504 L 920.35714,360.57647 L 917.5,346.82647 L 903.92857,335.57647 L 887.14286,324.1479 L 877.5,319.86218 L 883.92857,329.1479 L 888.92857,341.11218 L 894.28571,352.00504 L 898.39285,367.36218 L 903.21429,389.68361 z "
            style="fill:#003c35;fill-opacity:1;fill-rule:evenodd;stroke:none;stroke-width:1px;stroke-linecap:butt;stroke-linejoin:miter;stroke-opacity:1"
          />
          <path
            sodipodi:nodetypes="ccccccccccccccccccccc"
            id="path7243"
            d="M 301.01015,347.23963 L 282.43872,310.09677 L 264.58158,270.09677 L 253.86729,235.81106 L 232.43872,168.6682 L 226.72443,122.95391 L 226.72443,92.953919 L 229.58158,75.096769 L 242.43872,62.239629 L 256.01015,62.239629 L 272.43872,72.239629 L 293.15301,90.811059 L 309.58158,123.6682 L 326.01015,163.6682 L 336.72444,189.38248 L 345.20921,208.45899 L 353.15301,223.6682 L 362.43872,234.38248 L 372.43872,314.38248 L 356.72444,344.38248 L 301.01015,347.23963 z "
            style="fill:#eab251;fill-opacity:1;fill-rule:evenodd;stroke:black;stroke-width:1px;stroke-linecap:butt;stroke-linejoin:miter;stroke-opacity:1"
          />
          <path
            id="path7249"
            d="M 577.14285,325.21932 L 531.42857,309.50504 L 484.28571,298.07647 L 446.42857,298.79075 L 424.28571,303.07647 L 422.14285,303.07647 L 365.71429,283.07647 L 362.14286,233.79075 L 352.14286,224.50504 L 342.14286,202.36218 L 357.85714,202.36218 L 363.57143,178.07647 L 395,155.21932 L 425.71428,138.79075 L 465.71428,128.79075 L 506.42857,121.6479 L 541.42857,117.36218 L 574.28571,135.21932 L 580,149.50504 L 571.42857,155.93361 L 568.57143,171.6479 L 575.71428,193.79075 L 617.85714,202.36218 L 577.14285,325.21932 z "
            style="fill:#f2c4a3;fill-opacity:1;fill-rule:evenodd;stroke:black;stroke-width:1px;stroke-linecap:butt;stroke-linejoin:miter;stroke-opacity:1"
          />
          <path
            sodipodi:nodetypes="ccccccccccccccc"
            id="path7247"
            d="M 473.57142,335.93361 L 522.14285,318.79075 L 567.85714,322.36218 L 595,330.21932 L 622.85714,353.07647 L 619.28571,372.36218 L 620,390.93361 L 620.71428,401.6479 L 621.42857,410.21932 L 620,428.07647 L 617.14285,445.21932 L 608.57143,450.21932 L 561.42857,452.36218 L 513.57143,449.50504 L 473.57142,335.93361 z "
            style="fill:#c5e2dd;fill-opacity:1;fill-rule:evenodd;stroke:black;stroke-width:1px;stroke-linecap:butt;stroke-linejoin:miter;stroke-opacity:1"
          />
          <path
            sodipodi:nodetypes="cccccccccccccccccccccccccccccccccccccccccccccccc"
            id="path7245"
            d="M 293.76577,360.70971 L 297.3013,349.09296 L 301.34191,344.0422 L 311.44344,339.49651 L 330.13126,334.95082 L 341.74802,335.4559 L 347.80893,335.4559 L 352.35462,319.29346 L 350.33431,300.10056 L 363.97137,287.97873 L 375.58813,277.87721 L 400.33686,280.40259 L 421.04499,299.59549 L 424.58052,312.22239 L 426.09575,320.80869 L 436.19728,313.73762 L 453.36987,310.20209 L 476.0983,317.27315 L 485.18967,330.40514 L 488.22013,341.51682 L 489.23028,355.15388 L 499.83689,349.59804 L 509.43334,356.16403 L 513.97902,374.34677 L 514.4841,387.47876 L 515.49425,398.08536 L 525.0907,405.15643 L 528.62623,430.41024 L 529.63639,445.56253 L 517.51456,449.60314 L 488.22013,447.58283 L 465.4917,447.07776 L 460.94601,435.96608 L 461.95617,417.27826 L 455.39017,417.27826 L 443.77342,431.92547 L 428.11606,442.53207 L 410.94346,441.52192 L 382.65919,431.92547 L 381.64904,421.82394 L 365.4866,423.84425 L 354.37492,424.34932 L 325.58557,411.21734 L 323.56527,397.58028 L 322.55512,393.0346 L 306.89775,394.04475 L 297.80638,381.92292 L 293.76577,360.70971 z "
            style="fill:#c4080d;fill-opacity:1;fill-rule:evenodd;stroke:black;stroke-width:1px;stroke-linecap:butt;stroke-linejoin:miter;stroke-opacity:1"
          />
          <path
            sodipodi:nodetypes="cccccccccccccccccc"
            id="path7253"
            d="M 678.21429,77.719325 L 661.42857,165.21932 L 738.57143,230.93361 L 776.42857,239.50504 L 800.71428,244.50504 L 817.85714,257.36218 L 840.33176,278.58155 L 867.85714,302.36218 L 887.85714,262.36218 L 898.57143,211.6479 L 892.14285,166.6479 L 885,136.6479 L 857.85714,101.6479 L 825,80.219324 L 797.85714,63.076467 L 762.14285,55.93361 L 717.85714,60.93361 L 678.21429,77.719325 z "
            style="fill:#f27579;fill-opacity:1;fill-rule:evenodd;stroke:black;stroke-width:1px;stroke-linecap:butt;stroke-linejoin:miter;stroke-opacity:1"
          />
          <path
            id="path7255"
            d="M 738.57143,230.93361 L 803.57143,245.21932 L 867.85714,301.6479 L 879.28571,320.21932 L 889.28571,340.93361 L 895,354.50504 L 900,374.50504 L 903.57143,389.50504 L 880.71428,400.93361 L 846.42857,415.93361 L 808.57143,430.93361 L 762.85714,441.6479 L 737.85714,443.79075 L 759.28571,433.07647 L 780,420.21932 L 788.57143,390.21932 L 784.28571,365.21932 L 768.57143,343.79075 L 738.57143,316.6479 L 705,298.07647 L 677.14285,293.07647 L 659.28571,308.07647 L 632.85714,342.36218 L 625.71428,358.79075 L 620,385.21932 L 619.28571,372.36218 L 622.85714,353.79075 L 595,329.50504 L 594.28571,321.6479 L 695.71428,223.79075 L 738.57143,230.93361 z "
            style="fill:#e4e4da;fill-opacity:1;fill-rule:evenodd;stroke:black;stroke-width:1px;stroke-linecap:butt;stroke-linejoin:miter;stroke-opacity:1"
          />
          <path
            sodipodi:nodetypes="cccccccccccccccccccccccccccccccccccccccccccccccccc"
            id="path7251"
            d="M 535.71428,117.36218 L 537.14285,105.21932 L 545.71428,90.219324 L 558.57143,80.219324 L 570.71428,77.362182 L 584.28571,80.93361 L 600.71428,93.076467 L 612.14285,76.647896 L 631.42857,63.790753 L 651.42857,59.505039 L 672.14285,72.362182 L 688.57143,86.647896 L 689.28571,98.790753 L 683.57143,107.36218 L 677.85714,115.21932 L 682.14285,120.93361 L 693.57143,122.36218 L 703.57143,124.50504 L 715.71428,137.36218 L 725,153.79075 L 730.71428,161.6479 L 749.28571,171.6479 L 751.42857,193.79075 L 748.57143,217.36218 L 737.14285,232.36218 L 720,240.21932 L 712.85714,255.93361 L 697.85714,268.07647 L 675,278.79075 L 652.14285,280.21932 L 644.28571,288.07647 L 638.57143,305.93361 L 630,314.50504 L 614.28571,323.79075 L 591.42857,325.93361 L 582.14285,314.50504 L 575.71428,294.50504 L 578.57143,276.6479 L 572.85714,267.36218 L 567.85714,245.21932 L 570.71428,228.07647 L 581.42857,215.93361 L 584.40826,197.03042 L 575,193.07647 L 569.28571,171.6479 L 571.42857,152.36218 L 577.85714,140.93361 L 566.42857,137.36218 L 549.28571,126.6479 L 535.71428,117.36218 z "
            style="fill:#c4080d;fill-opacity:1;fill-rule:evenodd;stroke:black;stroke-width:1px;stroke-linecap:butt;stroke-linejoin:miter;stroke-opacity:1"
          />
          <path
            id="path7257"
            d="M 677.14285,292.71932 L 705.35714,298.07647 L 738.57143,317.00504 L 768.57143,343.79075 L 783.57143,364.50504 L 788.92857,390.93361 L 779.64286,420.57647 L 760.35714,432.36218 L 738.21428,443.07647 L 710.71428,445.93361 L 699.28571,446.6479 L 681.78571,438.07647 L 655,421.29075 L 632.85714,406.6479 L 620.35714,393.79075 L 620.35714,383.79075 L 626.07143,359.50504 L 633.57143,341.6479 L 660,307.00504 L 677.14285,292.71932 z "
            style="fill:#e8040c;fill-opacity:1;fill-rule:evenodd;stroke:black;stroke-width:1px;stroke-linecap:butt;stroke-linejoin:miter;stroke-opacity:1"
          />
          <path
            sodipodi:nodetypes="cccc"
            id="path7263"
            d="M 313.14729,399.20927 L 313.14729,394.03224 L 307.89629,394.37407 L 313.14729,399.20927 z "
            style="fill:#df91a7;fill-opacity:1;fill-rule:evenodd;stroke:none;stroke-width:1px;stroke-linecap:butt;stroke-linejoin:miter;stroke-opacity:1"
          />
          <path
            id="path8150"
            d="M 404.28571,308.07646 L 410,298.07646 L 406.42857,290.21932 L 393.57142,293.07646 L 395.71428,301.64789 L 404.28571,308.07646 z "
            style="fill:#df91a7;fill-opacity:1;fill-rule:evenodd;stroke:none;stroke-width:1px;stroke-linecap:butt;stroke-linejoin:miter;stroke-opacity:1"
          />
          <path
            id="path8152"
            d="M 375.71428,370.21932 L 380,375.21932 L 380.71428,380.93361 L 375,382.36218 L 372.14285,374.50504 L 375.71428,370.21932 z "
            style="fill:#df91a7;fill-opacity:1;fill-rule:evenodd;stroke:none;stroke-width:1px;stroke-linecap:butt;stroke-linejoin:miter;stroke-opacity:1"
          />
          <path
            id="path8154"
            d="M 437.85714,357.36218 L 445.71428,353.07646 L 448.57142,343.07646 L 441.42857,333.79075 L 430,332.36218 L 427.14285,343.79075 L 437.85714,357.36218 z "
            style="fill:#df91a7;fill-opacity:1;fill-rule:evenodd;stroke:none;stroke-width:1px;stroke-linecap:butt;stroke-linejoin:miter;stroke-opacity:1"
          />
          <path
            id="path8156"
            d="M 467.14285,334.50504 L 467.85714,327.36218 L 460,321.64789 L 457.85714,326.64789 L 467.14285,334.50504 z "
            style="fill:#df91a7;fill-opacity:1;fill-rule:evenodd;stroke:none;stroke-width:1px;stroke-linecap:butt;stroke-linejoin:miter;stroke-opacity:1"
          />
          <path
            id="path8158"
            d="M 430.71428,385.21932 L 435,394.50504 L 426.42857,398.79075 L 422.14285,389.50504 L 430.71428,385.21932 z "
            style="fill:#df91a7;fill-opacity:1;fill-rule:evenodd;stroke:none;stroke-width:1px;stroke-linecap:butt;stroke-linejoin:miter;stroke-opacity:1"
          />
          <path
            id="path8160"
            d="M 492.85714,362.36218 L 499.28571,359.50504 L 500,366.64789 L 492.85714,362.36218 z "
            style="fill:#df91a7;fill-opacity:1;fill-rule:evenodd;stroke:none;stroke-width:1px;stroke-linecap:butt;stroke-linejoin:miter;stroke-opacity:1"
          />
          <path
            id="path8162"
            d="M 505.71428,400.21932 C 505.71428,400.21932 510,400.21932 512.85714,408.07646 C 515.71428,415.93361 524.28571,425.21932 524.28571,425.21932 L 518.57142,432.36218 L 512.14285,425.21932 L 506.42857,415.93361 L 500.71428,406.64789 L 505.71428,400.21932 z "
            style="fill:#df91a7;fill-opacity:1;fill-rule:evenodd;stroke:none;stroke-width:1px;stroke-linecap:butt;stroke-linejoin:miter;stroke-opacity:1"
          />
          <path
            id="path10819"
            d="M 384.86812,356.36708 L 389.91888,364.4483 L 390.92903,376.57013 L 382.84781,371.51936 L 375.77675,364.4483 L 384.86812,356.36708 z "
            style="fill:#003c35;fill-opacity:1;fill-rule:evenodd;stroke:black;stroke-width:1px;stroke-linecap:butt;stroke-linejoin:miter;stroke-opacity:1"
          />
          <path
            id="path10821"
            d="M 620.23367,265.45335 L 626.29458,275.55487 L 622.25397,283.63609 L 615.1829,280.60563 L 617.20321,274.54472 L 614.17275,267.47365 L 620.23367,265.45335 z "
            style="fill:#df91a7;fill-opacity:1;fill-rule:evenodd;stroke:none;stroke-width:1px;stroke-linecap:butt;stroke-linejoin:miter;stroke-opacity:1"
          />
          <path
            id="path10823"
            d="M 632.3555,206.8645 L 630.33519,198.78328 L 622.25397,197.77313 L 619.22352,203.83404 L 622.25397,209.89496 L 632.3555,206.8645 z "
            style="fill:#df91a7;fill-opacity:1;fill-rule:evenodd;stroke:none;stroke-width:1px;stroke-linecap:butt;stroke-linejoin:miter;stroke-opacity:1"
          />
          <path
            id="path10825"
            d="M 700.03572,204.8442 L 702.05602,209.89496 L 704.07633,215.95587 L 700.03572,222.01679 L 694.98496,224.0371 L 686.90374,215.95587 L 686.90374,206.8645 L 700.03572,204.8442 z "
            style="fill:#df91a7;fill-opacity:1;fill-rule:evenodd;stroke:none;stroke-width:1px;stroke-linecap:butt;stroke-linejoin:miter;stroke-opacity:1"
          />
          <path
            id="path10827"
            d="M 728.31999,202.82389 L 734.38091,192.72237 L 729.33014,187.6716 L 711.1474,192.72237 L 718.21846,199.79343 L 728.31999,202.82389 z "
            style="fill:#df91a7;fill-opacity:1;fill-rule:evenodd;stroke:none;stroke-width:1px;stroke-linecap:butt;stroke-linejoin:miter;stroke-opacity:1"
          />
          <path
            id="path10829"
            d="M 703.06618,148.27565 L 710.13724,140.19443 L 704.07633,129.08276 L 694.98496,128.0726 L 680.84282,135.14367 L 685.89358,144.23504 L 703.06618,148.27565 z "
            style="fill:#df91a7;fill-opacity:1;fill-rule:evenodd;stroke:none;stroke-width:1px;stroke-linecap:butt;stroke-linejoin:miter;stroke-opacity:1"
          />
          <path
            id="path10831"
            d="M 628.31489,149.28581 L 628.31489,137.16398 L 622.25397,135.14367 L 615.1829,138.17413 L 617.20321,152.31626 L 628.31489,149.28581 z "
            style="fill:#df91a7;fill-opacity:1;fill-rule:evenodd;stroke:none;stroke-width:1px;stroke-linecap:butt;stroke-linejoin:miter;stroke-opacity:1"
          />
          <path
            id="path10833"
            d="M 645.48748,81.605587 L 651.5484,69.483756 L 642.45702,66.453299 L 636.39611,77.564977 L 645.48748,81.605587 z "
            style="fill:#df91a7;fill-opacity:1;fill-rule:evenodd;stroke:none;stroke-width:1px;stroke-linecap:butt;stroke-linejoin:miter;stroke-opacity:1"
          />
          <path
            id="path10835"
            d="M 585.88848,95.747722 L 589.92909,84.636044 L 579.82757,82.615739 L 571.74635,84.636044 L 571.74635,90.69696 L 575.78696,96.757875 L 585.88848,95.747722 z "
            style="fill:#df91a7;fill-opacity:1;fill-rule:evenodd;stroke:none;stroke-width:1px;stroke-linecap:butt;stroke-linejoin:miter;stroke-opacity:1"
          />
          <path
            id="path11722"
            d="M 654.58399,161.42177 L 666.69811,176.38416 L 684.8693,182.79661 L 680.83126,193.48403 L 666.69811,197.759 L 642.46987,189.20906 L 640.45085,172.10919 L 654.58399,161.42177 z "
            style="fill:#f27579;fill-opacity:1;fill-rule:evenodd;stroke:black;stroke-width:1.0282644px;stroke-linecap:butt;stroke-linejoin:miter;stroke-opacity:1"
          />
          <path
            sodipodi:nodetypes="ccccccc"
            id="path11724"
            d="M 640.81489,111.50226 L 654.45195,126.02321 L 646.8758,135.74593 L 630.71336,129.68501 L 620.61184,123.6241 L 626.67275,111.50226 L 640.81489,111.50226 z "
            style="fill:#f27579;fill-opacity:1;fill-rule:evenodd;stroke:black;stroke-width:1px;stroke-linecap:butt;stroke-linejoin:miter;stroke-opacity:1"
          />
          <path
            sodipodi:nodetypes="cccccccc"
            id="path11726"
            d="M 621.42857,121.6479 L 633.92857,124.50504 L 644.57787,129.16956 L 649.36865,132.57139 L 646.80738,135.82901 L 632.14286,130.21932 L 620.35714,123.43361 L 621.42857,121.6479 z "
            style="fill:#f2c4a3;fill-opacity:1;fill-rule:evenodd;stroke:black;stroke-width:1px;stroke-linecap:butt;stroke-linejoin:miter;stroke-opacity:1"
          />
        </g>
        <path
          style="fill:#5a9293;fill-opacity:1;fill-rule:evenodd;stroke:black;stroke-width:1px;stroke-linecap:butt;stroke-linejoin:miter;stroke-opacity:1"
          d="M 367.69552,848.31137 L 377.79705,858.41289 L 343.45186,896.79869 L 282.84271,971.54998 L 230.31478,961.44845 L 214.15233,917.00174 L 367.69552,848.31137 z "
          id="path11769"
        />
      </g>
      <path
        id="path11814"
        d="M 140,325.21933 L 144.28571,339.50504 L 138.57143,349.50504 L 130,343.79075 L 130,332.36218 L 140,325.21933 z "
        style="fill:#df91a7;fill-opacity:1;fill-rule:evenodd;stroke:none;stroke-width:1px;stroke-linecap:butt;stroke-linejoin:miter;stroke-opacity:1"
      />
    </g>
  </g>
</svg>
