<?xml version="1.0" encoding="utf-8"?>
<!-- Designed by Vexels.com - 2020 All Rights Reserved - https://vexels.com/terms-and-conditions/  -->
<svg version="1.1" id="Layer_1" xmlns="http://www.w3.org/2000/svg" xmlns:xlink="http://www.w3.org/1999/xlink" x="0px" y="0px"
	 viewBox="0 0 1200 1200" enable-background="new 0 0 1200 1200" xml:space="preserve">
<g>
	<ellipse fill="#D3E4ED" cx="585.617" cy="1071.058" rx="198.698" ry="78.942"/>
	<g>
		<path fill="none" d="M702.832,415.56c0,79.646-32.563,148.996-80.661,184.96c-85.131-1.604-153.768-95.524-153.768-211.148
			c0-79.646,32.577-149.01,80.675-184.974C634.195,206.003,702.832,299.936,702.832,415.56z"/>
		<path fill="#31353E" d="M468.403,389.372c0-79.646,32.577-149.01,80.675-184.974c-0.74,0-1.468-0.014-2.208-0.014
			c-86.146,0-155.975,94.55-155.975,211.175s69.829,211.162,155.975,211.162c27.312,0,52.979-9.502,75.3-26.202
			C537.04,598.916,468.403,504.997,468.403,389.372z M895.47,427.434C895.47,218.987,780.531,50,638.747,50
			c-4.771,0-9.515,0.206-14.232,0.59h-0.137c-56.626,1.124-130.199,37.513-146.899,46.151c26.243-13.313,54.432-20.553,83.76-20.553
			c141.785,0,256.723,168.987,256.723,377.434c0,92.302-22.541,176.843-59.972,242.422l0.014,0.014L595.16,1013.37
			c-5.32,10.365-14.232,16.823-24.008,19.346c25.79-1.728,84.309-28.656,84.309-28.656v-0.014
			c7.02-3.345,13.163-8.967,17.207-16.865L835.512,669.87l-0.013-0.014C872.93,604.277,895.47,519.736,895.47,427.434z"/>
	</g>
	<path fill="#EB545D" d="M817.963,453.622c0-208.447-114.939-377.434-256.723-377.434c-141.771,0-256.709,168.987-256.709,377.434
		c0,93.851,23.309,179.695,61.864,245.727v0.014l161.295,313.815c13.971,27.6,53.349,27.71,67.471,0.192l162.845-317.312
		l-0.014-0.014C795.422,630.465,817.963,545.924,817.963,453.622z M546.87,626.722c-86.146,0-155.975-94.537-155.975-211.162
		s69.829-211.175,155.975-211.175c86.132,0,155.962,94.55,155.962,211.175S633.003,626.722,546.87,626.722z"/>
	<path fill="none" d="M638.764,204.385c-86.146,0-155.975,94.55-155.975,211.175s69.829,211.162,155.975,211.162
		c86.132,0,155.962-94.537,155.962-211.162S724.896,204.385,638.764,204.385z"/>
</g>
</svg>
