<?xml version="1.0" ?>
<svg
  style="enable-background:new 0 0 64 64;"
  version="1.1"
  viewBox="0 0 64 64"
  xml:space="preserve"
  xmlns="http://www.w3.org/2000/svg"
  xmlns:xlink="http://www.w3.org/1999/xlink"
><g id="Grid" /><g id="Proyektor" /><g id="Laptop" /><g id="Papan" /><g
    id="Kursi"
  /><g id="Meja" /><g id="Book" /><g id="News" /><g id="Note" /><g
    id="Calculator"
  /><g id="Ruler" /><g id="Pencil" /><g id="Clock" /><g id="Document" /><g
    id="Galeri"
  /><g id="Storage_Pencil" /><g id="Tras_Can" /><g id="Stempel" /><g
    id="_x2E_.."
  /><g id="Clip" /><g id="Board"><g><g><g><path
            class="st0"
            d="M34.2,6h-4.5C29.3,6.5,29,7.2,29,8c0,1.6,1.3,3,3,3s3-1.4,3-3C35,7.2,34.7,6.5,34.2,6z"
          /></g></g><g><path
          class="st0"
          d="M52,58H12c-1.1,0-2-0.9-2-2V8c0-1.1,0.9-2,2-2h40c1.1,0,2,0.9,2,2v48C54,57.1,53.1,58,52,58z M12,8v48h40     l0-48H12z"
        /></g><g><path
          class="st0"
          d="M41,16H23c-1.1,0-2-0.9-2-2V8c0-1.1,0.9-2,2-2h18c1.1,0,2,0.9,2,2v6C43,15.1,42.1,16,41,16z M23,8v6h18l0-6     H23z"
        /></g><g><path
          class="st0"
          d="M19,27c-0.3,0-0.5-0.1-0.7-0.3l-2-2c-0.4-0.4-0.4-1,0-1.4s1-0.4,1.4,0l2,2c0.4,0.4,0.4,1,0,1.4     C19.5,26.9,19.3,27,19,27z"
        /></g><g><path
          class="st0"
          d="M19,27.4l-2.7-2.7c-0.4-0.4-0.4-1,0-1.4s1-0.4,1.4,0l1.3,1.3l3.3-3.3c0.4-0.4,1-0.4,1.4,0s0.4,1,0,1.4     L19,27.4z"
        /></g><g><path
          class="st0"
          d="M19,35c-0.3,0-0.5-0.1-0.7-0.3l-2-2c-0.4-0.4-0.4-1,0-1.4s1-0.4,1.4,0l2,2c0.4,0.4,0.4,1,0,1.4     C19.5,34.9,19.3,35,19,35z"
        /></g><g><path
          class="st0"
          d="M19,35.4l-2.7-2.7c-0.4-0.4-0.4-1,0-1.4s1-0.4,1.4,0l1.3,1.3l3.3-3.3c0.4-0.4,1-0.4,1.4,0s0.4,1,0,1.4     L19,35.4z"
        /></g><g><path
          class="st0"
          d="M19,43c-0.3,0-0.5-0.1-0.7-0.3l-2-2c-0.4-0.4-0.4-1,0-1.4s1-0.4,1.4,0l2,2c0.4,0.4,0.4,1,0,1.4     C19.5,42.9,19.3,43,19,43z"
        /></g><g><path
          class="st0"
          d="M19,43.4l-2.7-2.7c-0.4-0.4-0.4-1,0-1.4s1-0.4,1.4,0l1.3,1.3l3.3-3.3c0.4-0.4,1-0.4,1.4,0s0.4,1,0,1.4     L19,43.4z"
        /></g><g><path
          class="st0"
          d="M19,51c-0.3,0-0.5-0.1-0.7-0.3l-2-2c-0.4-0.4-0.4-1,0-1.4s1-0.4,1.4,0l2,2c0.4,0.4,0.4,1,0,1.4     C19.5,50.9,19.3,51,19,51z"
        /></g><g><path
          class="st0"
          d="M19,51.4l-2.7-2.7c-0.4-0.4-0.4-1,0-1.4s1-0.4,1.4,0l1.3,1.3l3.3-3.3c0.4-0.4,1-0.4,1.4,0s0.4,1,0,1.4     L19,51.4z"
        /></g><g><path
          class="st0"
          d="M47,24H32c-0.6,0-1-0.4-1-1s0.4-1,1-1h15c0.6,0,1,0.4,1,1S47.6,24,47,24z"
        /></g><g><path
          class="st0"
          d="M47,27H32c-0.6,0-1-0.4-1-1s0.4-1,1-1h15c0.6,0,1,0.4,1,1S47.6,27,47,27z"
        /></g><g><path
          class="st0"
          d="M47,32H32c-0.6,0-1-0.4-1-1s0.4-1,1-1h15c0.6,0,1,0.4,1,1S47.6,32,47,32z"
        /></g><g><path
          class="st0"
          d="M47,35H32c-0.6,0-1-0.4-1-1s0.4-1,1-1h15c0.6,0,1,0.4,1,1S47.6,35,47,35z"
        /></g><g><path
          class="st0"
          d="M47,40H32c-0.6,0-1-0.4-1-1s0.4-1,1-1h15c0.6,0,1,0.4,1,1S47.6,40,47,40z"
        /></g><g><path
          class="st0"
          d="M47,43H32c-0.6,0-1-0.4-1-1s0.4-1,1-1h15c0.6,0,1,0.4,1,1S47.6,43,47,43z"
        /></g><g><path
          class="st0"
          d="M47,48H32c-0.6,0-1-0.4-1-1s0.4-1,1-1h15c0.6,0,1,0.4,1,1S47.6,48,47,48z"
        /></g><g><path
          class="st0"
          d="M47,51H32c-0.6,0-1-0.4-1-1s0.4-1,1-1h15c0.6,0,1,0.4,1,1S47.6,51,47,51z"
        /></g></g></g></svg>
